<svg width="286" height="118" viewBox="0 0 286 118" fill="none" xmlns="http://www.w3.org/2000/svg">
<path d="M75.5 77.8C75.1 78.2 74.34 78.56 73.22 78.88C72.1 79.16 70.8 79.3 69.32 79.3C66.04 79.3 63.98 78.32 63.14 76.36C61.14 78.44 58.08 79.48 53.96 79.48C51.76 79.48 49.94 78.98 48.5 77.98C47.1 76.94 46.4 75.42 46.4 73.42C46.4 70.74 47.44 68.68 49.52 67.24C51.6 65.76 55.24 64.72 60.44 64.12L62.84 63.82V60.88C62.84 57.4 62.58 55.06 62.06 53.86C61.54 52.66 60.5 52.06 58.94 52.06C57.42 52.06 56.44 52.28 56 52.72C55.56 53.12 55.4 53.6 55.52 54.16C55.64 54.68 55.84 55.38 56.12 56.26C56.4 57.14 56.54 57.84 56.54 58.36C56.54 59.6 56.1 60.66 55.22 61.54C54.38 62.38 53.34 62.8 52.1 62.8C50.9 62.8 49.86 62.38 48.98 61.54C48.1 60.66 47.66 59.6 47.66 58.36C47.66 56.32 48.7 54.58 50.78 53.14C52.9 51.66 56.04 50.92 60.2 50.92C64.4 50.92 67.38 51.74 69.14 53.38C70.94 55.02 71.84 57.92 71.84 62.08V72.88C71.84 75 72.1 76.34 72.62 76.9C73.14 77.42 74.1 77.52 75.5 77.2V77.8ZM54.74 72.22C54.94 73.74 55.5 74.92 56.42 75.76C57.34 76.56 58.4 76.96 59.6 76.96C60.84 76.96 61.92 76.36 62.84 75.16V64.96L60.68 65.26C58.84 65.5 57.34 66.2 56.18 67.36C55.06 68.52 54.58 70.14 54.74 72.22ZM100.255 51.4V52.6H97.3153L86.0953 79H85.0153L71.6953 52.6H69.2953V51.4H84.8953V52.6H81.8953L89.3353 68.2L95.9953 52.6H91.2553V51.4H100.255ZM124.363 77.8C123.963 78.2 123.203 78.56 122.083 78.88C120.963 79.16 119.663 79.3 118.183 79.3C114.903 79.3 112.843 78.32 112.003 76.36C110.003 78.44 106.943 79.48 102.823 79.48C100.623 79.48 98.8033 78.98 97.3633 77.98C95.9633 76.94 95.2633 75.42 95.2633 73.42C95.2633 70.74 96.3033 68.68 98.3833 67.24C100.463 65.76 104.103 64.72 109.303 64.12L111.703 63.82V60.88C111.703 57.4 111.443 55.06 110.923 53.86C110.403 52.66 109.363 52.06 107.803 52.06C106.283 52.06 105.303 52.28 104.863 52.72C104.423 53.12 104.263 53.6 104.383 54.16C104.503 54.68 104.703 55.38 104.983 56.26C105.263 57.14 105.403 57.84 105.403 58.36C105.403 59.6 104.963 60.66 104.083 61.54C103.243 62.38 102.203 62.8 100.963 62.8C99.7633 62.8 98.7233 62.38 97.8433 61.54C96.9633 60.66 96.5233 59.6 96.5233 58.36C96.5233 56.32 97.5633 54.58 99.6433 53.14C101.763 51.66 104.903 50.92 109.063 50.92C113.263 50.92 116.243 51.74 118.003 53.38C119.803 55.02 120.703 57.92 120.703 62.08V72.88C120.703 75 120.963 76.34 121.483 76.9C122.003 77.42 122.963 77.52 124.363 77.2V77.8ZM103.603 72.22C103.803 73.74 104.363 74.92 105.283 75.76C106.203 76.56 107.263 76.96 108.463 76.96C109.703 76.96 110.783 76.36 111.703 75.16V64.96L109.543 65.26C107.703 65.5 106.203 66.2 105.043 67.36C103.923 68.52 103.443 70.14 103.603 72.22ZM151.459 77.8H154.459V79H139.459V77.8H142.459V61C142.459 58.16 142.039 56.14 141.199 54.94C140.359 53.74 139.099 53.14 137.419 53.14C135.139 53.14 133.319 54.34 131.959 56.74V77.8H134.959V79H119.959V77.8H122.959V52.6H119.959V51.4H131.959V54.52C132.719 53.48 133.899 52.6 135.499 51.88C137.139 51.12 138.899 50.74 140.779 50.74C147.899 50.74 151.459 54.6 151.459 62.32V77.8Z" fill="#AAACC0"/>
<path d="M16.56 41.12V59.696C21.36 59.696 24.576 59 26.208 57.608C27.84 56.216 28.656 53.888 28.656 50.624C28.656 47.36 27.816 44.96 26.136 43.424C24.456 41.888 21.264 41.12 16.56 41.12ZM44.856 80.72H41.688C35.688 80.72 31.512 79.424 29.16 76.832C27.288 74.816 26.016 72.152 25.344 68.84C25.056 67.448 24.744 66.176 24.408 65.024C23.64 62.432 22.08 61.136 19.728 61.136H16.56V78.56H20.16V80H2.16V78.56H5.76V41.12H2.16V39.68H21.096C33.336 39.68 39.456 43.256 39.456 50.408C39.456 53.24 38.424 55.544 36.36 57.32C34.296 59.096 31.656 59.984 28.44 59.984V60.488C33.24 60.488 36.576 63.656 38.448 69.992C39.408 73.352 40.368 75.752 41.328 77.192C42.336 78.584 43.512 79.28 44.856 79.28V80.72Z" fill="#AAACC0"/>
</svg>
